<svg width="976" height="820" viewBox="0 0 976 820" fill="none" xmlns="http://www.w3.org/2000/svg">
<rect width="976" height="820" fill="url(#paint0_linear_61340:2780)"/>
<mask id="mask0_61340:2780" style="mask-type:alpha" maskUnits="userSpaceOnUse" x="0" y="0" width="976" height="820">
<rect width="976" height="820" fill="url(#paint1_linear_61340:2780)"/>
</mask>
<g mask="url(#mask0_61340:2780)">
<g style="mix-blend-mode:luminosity" opacity="0.4">
<path d="M0.000205994 304.761V374.986L60.9764 410.102L121.953 374.986V304.761L60.9764 269.646L0.000205994 304.761Z" fill="url(#paint2_linear_61340:2780)"/>
<path d="M0.000205994 234.533V304.758L60.9764 339.874L121.953 304.758V234.533L60.9764 199.417L0.000205994 234.533Z" fill="url(#paint3_linear_61340:2780)"/>
<path d="M182.929 199.436V269.661L121.953 304.776L60.9763 269.661V199.436L121.953 164.32L182.929 199.436Z" fill="url(#paint4_linear_61340:2780)"/>
<path d="M121.953 374.986V304.761L182.929 269.646L243.905 304.761V374.986L182.929 410.102L121.953 374.986Z" fill="url(#paint5_linear_61340:2780)"/>
<path d="M243.905 234.533V304.758L182.929 339.874L121.953 304.758V234.533L182.929 199.417L243.905 234.533Z" fill="url(#paint6_linear_61340:2780)"/>
<path d="M182.929 410.117V339.892L121.953 304.776L60.9763 339.892L60.9763 410.117L121.953 445.233L182.929 410.117Z" fill="url(#paint7_linear_61340:2780)"/>
</g>
<g style="mix-blend-mode:luminosity" opacity="0.4">
<path d="M488 304.761V374.986L548.976 410.102L609.953 374.986V304.761L548.976 269.645L488 304.761Z" fill="url(#paint8_linear_61340:2780)"/>
<path d="M488 234.533V304.758L548.976 339.874L609.953 304.758V234.533L548.976 199.417L488 234.533Z" fill="url(#paint9_linear_61340:2780)"/>
<path d="M670.929 199.435V269.66L609.953 304.776L548.976 269.66V199.435L609.953 164.319L670.929 199.435Z" fill="url(#paint10_linear_61340:2780)"/>
<path d="M609.953 374.986V304.761L670.929 269.646L731.905 304.761V374.986L670.929 410.102L609.953 374.986Z" fill="url(#paint11_linear_61340:2780)"/>
<path d="M731.905 234.533V304.758L670.929 339.874L609.953 304.758V234.533L670.929 199.417L731.905 234.533Z" fill="url(#paint12_linear_61340:2780)"/>
<path d="M670.929 410.117V339.892L609.953 304.776L548.976 339.892V410.117L609.953 445.233L670.929 410.117Z" fill="url(#paint13_linear_61340:2780)"/>
</g>
<g style="mix-blend-mode:luminosity" opacity="0.4">
<path d="M244 304.761V374.986L304.976 410.102L365.953 374.986V304.761L304.976 269.646L244 304.761Z" fill="url(#paint14_linear_61340:2780)"/>
<path d="M244 234.533V304.758L304.976 339.874L365.953 304.758V234.533L304.976 199.417L244 234.533Z" fill="url(#paint15_linear_61340:2780)"/>
<path d="M426.929 199.436V269.661L365.952 304.776L304.976 269.661V199.436L365.952 164.32L426.929 199.436Z" fill="url(#paint16_linear_61340:2780)"/>
<path d="M365.953 374.986V304.761L426.929 269.646L487.905 304.761V374.986L426.929 410.102L365.953 374.986Z" fill="url(#paint17_linear_61340:2780)"/>
<path d="M487.905 234.533V304.758L426.929 339.874L365.953 304.758V234.533L426.929 199.417L487.905 234.533Z" fill="url(#paint18_linear_61340:2780)"/>
<path d="M426.929 410.117V339.892L365.952 304.776L304.976 339.892V410.117L365.952 445.233L426.929 410.117Z" fill="url(#paint19_linear_61340:2780)"/>
</g>
<g style="mix-blend-mode:luminosity" opacity="0.4">
<path d="M732 304.761V374.986L792.976 410.102L853.953 374.986V304.761L792.976 269.645L732 304.761Z" fill="url(#paint20_linear_61340:2780)"/>
<path d="M732 234.533V304.758L792.976 339.874L853.953 304.758V234.533L792.976 199.417L732 234.533Z" fill="url(#paint21_linear_61340:2780)"/>
<path d="M914.929 199.435V269.66L853.953 304.776L792.977 269.66V199.435L853.953 164.319L914.929 199.435Z" fill="url(#paint22_linear_61340:2780)"/>
<path d="M853.953 374.986V304.761L914.929 269.646L975.905 304.761V374.986L914.929 410.102L853.953 374.986Z" fill="url(#paint23_linear_61340:2780)"/>
<path d="M975.905 234.533V304.758L914.929 339.874L853.953 304.758V234.533L914.929 199.417L975.905 234.533Z" fill="url(#paint24_linear_61340:2780)"/>
<path d="M914.929 410.117V339.892L853.953 304.776L792.977 339.892V410.117L853.953 445.233L914.929 410.117Z" fill="url(#paint25_linear_61340:2780)"/>
</g>
<g style="mix-blend-mode:luminosity" opacity="0.4">
<path d="M0.000205994 515.206V585.431L60.9764 620.547L121.953 585.431V515.206L60.9764 480.09L0.000205994 515.206Z" fill="url(#paint26_linear_61340:2780)"/>
<path d="M0.000205994 444.978V515.203L60.9764 550.318L121.953 515.203V444.978L60.9764 409.862L0.000205994 444.978Z" fill="url(#paint27_linear_61340:2780)"/>
<path d="M182.929 409.88V480.105L121.953 515.221L60.9763 480.105V409.88L121.953 374.764L182.929 409.88Z" fill="url(#paint28_linear_61340:2780)"/>
<path d="M121.953 585.431V515.206L182.929 480.09L243.905 515.206V585.431L182.929 620.547L121.953 585.431Z" fill="url(#paint29_linear_61340:2780)"/>
<path d="M243.905 444.978V515.203L182.929 550.318L121.953 515.203V444.978L182.929 409.862L243.905 444.978Z" fill="url(#paint30_linear_61340:2780)"/>
<path d="M182.929 620.562V550.337L121.953 515.221L60.9763 550.337L60.9763 620.562L121.953 655.677L182.929 620.562Z" fill="url(#paint31_linear_61340:2780)"/>
</g>
<g style="mix-blend-mode:luminosity" opacity="0.4">
<path d="M488 515.206V585.431L548.976 620.547L609.953 585.431V515.206L548.976 480.09L488 515.206Z" fill="url(#paint32_linear_61340:2780)"/>
<path d="M488 444.978V515.203L548.976 550.318L609.953 515.203V444.978L548.976 409.862L488 444.978Z" fill="url(#paint33_linear_61340:2780)"/>
<path d="M670.929 409.88V480.105L609.953 515.221L548.976 480.105V409.88L609.953 374.764L670.929 409.88Z" fill="url(#paint34_linear_61340:2780)"/>
<path d="M609.953 585.431V515.206L670.929 480.09L731.905 515.206V585.431L670.929 620.547L609.953 585.431Z" fill="url(#paint35_linear_61340:2780)"/>
<path d="M731.905 444.978V515.203L670.929 550.318L609.953 515.203V444.978L670.929 409.862L731.905 444.978Z" fill="url(#paint36_linear_61340:2780)"/>
<path d="M670.929 620.562V550.337L609.953 515.221L548.976 550.337V620.562L609.953 655.678L670.929 620.562Z" fill="url(#paint37_linear_61340:2780)"/>
</g>
<g style="mix-blend-mode:luminosity" opacity="0.4">
<path d="M244 515.206V585.431L304.976 620.547L365.953 585.431V515.206L304.976 480.09L244 515.206Z" fill="url(#paint38_linear_61340:2780)"/>
<path d="M244 444.978V515.203L304.976 550.318L365.953 515.203V444.978L304.976 409.862L244 444.978Z" fill="url(#paint39_linear_61340:2780)"/>
<path d="M426.929 409.88V480.105L365.952 515.221L304.976 480.105V409.88L365.952 374.764L426.929 409.88Z" fill="url(#paint40_linear_61340:2780)"/>
<path d="M365.953 585.431V515.206L426.929 480.09L487.905 515.206V585.431L426.929 620.547L365.953 585.431Z" fill="url(#paint41_linear_61340:2780)"/>
<path d="M487.905 444.978V515.203L426.929 550.318L365.953 515.203V444.978L426.929 409.862L487.905 444.978Z" fill="url(#paint42_linear_61340:2780)"/>
<path d="M426.929 620.562V550.337L365.952 515.221L304.976 550.337V620.562L365.952 655.678L426.929 620.562Z" fill="url(#paint43_linear_61340:2780)"/>
</g>
<g style="mix-blend-mode:luminosity" opacity="0.4">
<path d="M732 515.206V585.431L792.976 620.547L853.953 585.431V515.206L792.976 480.09L732 515.206Z" fill="url(#paint44_linear_61340:2780)"/>
<path d="M732 444.978V515.203L792.976 550.318L853.953 515.203V444.978L792.976 409.862L732 444.978Z" fill="url(#paint45_linear_61340:2780)"/>
<path d="M914.929 409.88V480.105L853.953 515.221L792.977 480.105V409.88L853.953 374.764L914.929 409.88Z" fill="url(#paint46_linear_61340:2780)"/>
<path d="M853.953 585.431V515.206L914.929 480.09L975.905 515.206V585.431L914.929 620.547L853.953 585.431Z" fill="url(#paint47_linear_61340:2780)"/>
<path d="M975.905 444.978V515.203L914.929 550.318L853.953 515.203V444.978L914.929 409.862L975.905 444.978Z" fill="url(#paint48_linear_61340:2780)"/>
<path d="M914.929 620.562V550.337L853.953 515.221L792.977 550.337V620.562L853.953 655.678L914.929 620.562Z" fill="url(#paint49_linear_61340:2780)"/>
</g>
<g style="mix-blend-mode:luminosity" opacity="0.4">
<path d="M0.000205994 725.65V795.875L60.9764 830.991L121.953 795.875V725.65L60.9764 690.535L0.000205994 725.65Z" fill="url(#paint50_linear_61340:2780)"/>
<path d="M0.000205994 655.422V725.647L60.9764 760.763L121.953 725.647V655.422L60.9764 620.306L0.000205994 655.422Z" fill="url(#paint51_linear_61340:2780)"/>
<path d="M182.929 620.325V690.55L121.953 725.666L60.9763 690.55V620.325L121.953 585.209L182.929 620.325Z" fill="url(#paint52_linear_61340:2780)"/>
<path d="M121.953 795.875V725.651L182.929 690.535L243.905 725.651V795.875L182.929 830.991L121.953 795.875Z" fill="url(#paint53_linear_61340:2780)"/>
<path d="M243.905 655.422V725.647L182.929 760.763L121.953 725.647V655.422L182.929 620.306L243.905 655.422Z" fill="url(#paint54_linear_61340:2780)"/>
<path d="M182.929 831.006V760.781L121.953 725.666L60.9763 760.781L60.9763 831.006L121.953 866.122L182.929 831.006Z" fill="url(#paint55_linear_61340:2780)"/>
</g>
<g style="mix-blend-mode:luminosity" opacity="0.4">
<path d="M488 725.651V795.876L548.976 830.991L609.953 795.876V725.651L548.976 690.535L488 725.651Z" fill="url(#paint56_linear_61340:2780)"/>
<path d="M488 655.422V725.647L548.976 760.763L609.953 725.647V655.422L548.976 620.307L488 655.422Z" fill="url(#paint57_linear_61340:2780)"/>
<path d="M670.929 620.325V690.55L609.953 725.666L548.976 690.55V620.325L609.953 585.209L670.929 620.325Z" fill="url(#paint58_linear_61340:2780)"/>
<path d="M609.953 795.875V725.651L670.929 690.535L731.905 725.651V795.875L670.929 830.991L609.953 795.875Z" fill="url(#paint59_linear_61340:2780)"/>
<path d="M731.905 655.422V725.647L670.929 760.763L609.953 725.647V655.422L670.929 620.307L731.905 655.422Z" fill="url(#paint60_linear_61340:2780)"/>
<path d="M670.929 831.006V760.781L609.953 725.666L548.976 760.781V831.006L609.953 866.122L670.929 831.006Z" fill="url(#paint61_linear_61340:2780)"/>
</g>
<g style="mix-blend-mode:luminosity" opacity="0.4">
<path d="M244 725.651V795.876L304.976 830.991L365.953 795.876V725.651L304.976 690.535L244 725.651Z" fill="url(#paint62_linear_61340:2780)"/>
<path d="M244 655.422V725.647L304.976 760.763L365.953 725.647V655.422L304.976 620.307L244 655.422Z" fill="url(#paint63_linear_61340:2780)"/>
<path d="M426.929 620.325V690.55L365.952 725.666L304.976 690.55V620.325L365.952 585.209L426.929 620.325Z" fill="url(#paint64_linear_61340:2780)"/>
<path d="M365.953 795.875V725.651L426.929 690.535L487.905 725.651V795.875L426.929 830.991L365.953 795.875Z" fill="url(#paint65_linear_61340:2780)"/>
<path d="M487.905 655.422V725.647L426.929 760.763L365.953 725.647V655.422L426.929 620.307L487.905 655.422Z" fill="url(#paint66_linear_61340:2780)"/>
<path d="M426.929 831.006V760.781L365.952 725.666L304.976 760.781V831.006L365.952 866.122L426.929 831.006Z" fill="url(#paint67_linear_61340:2780)"/>
</g>
<g style="mix-blend-mode:luminosity" opacity="0.4">
<path d="M732 725.651V795.876L792.976 830.991L853.953 795.876V725.651L792.976 690.535L732 725.651Z" fill="url(#paint68_linear_61340:2780)"/>
<path d="M732 655.422V725.647L792.976 760.763L853.953 725.647V655.422L792.976 620.307L732 655.422Z" fill="url(#paint69_linear_61340:2780)"/>
<path d="M914.929 620.325V690.55L853.953 725.666L792.977 690.55V620.325L853.953 585.209L914.929 620.325Z" fill="url(#paint70_linear_61340:2780)"/>
<path d="M853.953 795.875V725.651L914.929 690.535L975.905 725.651V795.875L914.929 830.991L853.953 795.875Z" fill="url(#paint71_linear_61340:2780)"/>
<path d="M975.905 655.422V725.647L914.929 760.763L853.953 725.647V655.422L914.929 620.307L975.905 655.422Z" fill="url(#paint72_linear_61340:2780)"/>
<path d="M914.929 831.006V760.781L853.953 725.666L792.977 760.781V831.006L853.953 866.122L914.929 831.006Z" fill="url(#paint73_linear_61340:2780)"/>
</g>
<g style="mix-blend-mode:luminosity" opacity="0.4">
<path d="M0.000205994 94.3169V164.542L60.9764 199.658L121.953 164.542V94.3169L60.9764 59.2011L0.000205994 94.3169Z" fill="url(#paint74_linear_61340:2780)"/>
<path d="M0.000205994 24.0884V94.3134L60.9764 129.429L121.953 94.3134V24.0884L60.9764 -11.0275L0.000205994 24.0884Z" fill="url(#paint75_linear_61340:2780)"/>
<path d="M182.929 -11.009V59.2159L121.953 94.3318L60.9763 59.2159V-11.009L121.953 -46.1249L182.929 -11.009Z" fill="url(#paint76_linear_61340:2780)"/>
<path d="M121.953 164.542V94.3168L182.929 59.2009L243.905 94.3168V164.542L182.929 199.658L121.953 164.542Z" fill="url(#paint77_linear_61340:2780)"/>
<path d="M243.905 24.0884V94.3134L182.929 129.429L121.953 94.3134V24.0884L182.929 -11.0275L243.905 24.0884Z" fill="url(#paint78_linear_61340:2780)"/>
<path d="M182.929 199.673V129.448L121.953 94.3318L60.9763 129.448L60.9763 199.673L121.953 234.788L182.929 199.673Z" fill="url(#paint79_linear_61340:2780)"/>
</g>
<g style="mix-blend-mode:luminosity" opacity="0.4">
<path d="M488 94.3169V164.542L548.976 199.658L609.953 164.542V94.3169L548.976 59.2011L488 94.3169Z" fill="url(#paint80_linear_61340:2780)"/>
<path d="M488 24.0884V94.3134L548.976 129.429L609.953 94.3134V24.0884L548.976 -11.0275L488 24.0884Z" fill="url(#paint81_linear_61340:2780)"/>
<path d="M670.929 -11.009V59.2159L609.953 94.3318L548.976 59.2159V-11.009L609.953 -46.1249L670.929 -11.009Z" fill="url(#paint82_linear_61340:2780)"/>
<path d="M609.953 164.542V94.3168L670.929 59.2009L731.905 94.3168V164.542L670.929 199.658L609.953 164.542Z" fill="url(#paint83_linear_61340:2780)"/>
<path d="M731.905 24.0884V94.3134L670.929 129.429L609.953 94.3134V24.0884L670.929 -11.0275L731.905 24.0884Z" fill="url(#paint84_linear_61340:2780)"/>
<path d="M670.929 199.673V129.448L609.953 94.3318L548.976 129.448V199.673L609.953 234.788L670.929 199.673Z" fill="url(#paint85_linear_61340:2780)"/>
</g>
<g style="mix-blend-mode:luminosity" opacity="0.4">
<path d="M244 94.3169V164.542L304.976 199.658L365.953 164.542V94.3169L304.976 59.2011L244 94.3169Z" fill="url(#paint86_linear_61340:2780)"/>
<path d="M244 24.0884V94.3134L304.976 129.429L365.953 94.3134V24.0884L304.976 -11.0275L244 24.0884Z" fill="url(#paint87_linear_61340:2780)"/>
<path d="M426.929 -11.009V59.2159L365.952 94.3318L304.976 59.2159V-11.009L365.952 -46.1249L426.929 -11.009Z" fill="url(#paint88_linear_61340:2780)"/>
<path d="M365.953 164.542V94.3168L426.929 59.2009L487.905 94.3168V164.542L426.929 199.658L365.953 164.542Z" fill="url(#paint89_linear_61340:2780)"/>
<path d="M487.905 24.0884V94.3134L426.929 129.429L365.953 94.3134V24.0884L426.929 -11.0275L487.905 24.0884Z" fill="url(#paint90_linear_61340:2780)"/>
<path d="M426.929 199.673V129.448L365.952 94.3318L304.976 129.448V199.673L365.952 234.788L426.929 199.673Z" fill="url(#paint91_linear_61340:2780)"/>
</g>
<g style="mix-blend-mode:luminosity" opacity="0.4">
<path d="M732 94.3169V164.542L792.976 199.658L853.953 164.542V94.3169L792.976 59.2011L732 94.3169Z" fill="url(#paint92_linear_61340:2780)"/>
<path d="M732 24.0884V94.3134L792.976 129.429L853.953 94.3134V24.0884L792.976 -11.0275L732 24.0884Z" fill="url(#paint93_linear_61340:2780)"/>
<path d="M914.929 -11.009V59.2159L853.953 94.3318L792.977 59.2159V-11.009L853.953 -46.1249L914.929 -11.009Z" fill="url(#paint94_linear_61340:2780)"/>
<path d="M853.953 164.542V94.3168L914.929 59.2009L975.905 94.3168V164.542L914.929 199.658L853.953 164.542Z" fill="url(#paint95_linear_61340:2780)"/>
<path d="M975.905 24.0884V94.3134L914.929 129.429L853.953 94.3134V24.0884L914.929 -11.0275L975.905 24.0884Z" fill="url(#paint96_linear_61340:2780)"/>
<path d="M914.929 199.673V129.448L853.953 94.3318L792.977 129.448V199.673L853.953 234.788L914.929 199.673Z" fill="url(#paint97_linear_61340:2780)"/>
</g>
</g>
<defs>
<linearGradient id="paint0_linear_61340:2780" x1="305" y1="0" x2="305" y2="820" gradientUnits="userSpaceOnUse">
<stop stop-color="#FF008E"/>
<stop offset="1" stop-color="#FFCD1E"/>
</linearGradient>
<linearGradient id="paint1_linear_61340:2780" x1="305" y1="0" x2="305" y2="820" gradientUnits="userSpaceOnUse">
<stop stop-color="#FF008E"/>
<stop offset="1" stop-color="#FFCD1E"/>
</linearGradient>
<linearGradient id="paint2_linear_61340:2780" x1="60.9764" y1="406.873" x2="0.231895" y2="303.246" gradientUnits="userSpaceOnUse">
<stop stop-color="#8257E5"/>
<stop offset="1" stop-color="#FF008E" stop-opacity="0"/>
</linearGradient>
<linearGradient id="paint3_linear_61340:2780" x1="60.9764" y1="336.644" x2="0.231885" y2="233.017" gradientUnits="userSpaceOnUse">
<stop stop-color="#8257E5"/>
<stop offset="1" stop-color="#FF008E" stop-opacity="0"/>
</linearGradient>
<linearGradient id="paint4_linear_61340:2780" x1="60.9763" y1="195.489" x2="182.763" y2="268.955" gradientUnits="userSpaceOnUse">
<stop stop-color="#FF008E" stop-opacity="0"/>
<stop offset="1" stop-color="#FFCD1E"/>
</linearGradient>
<linearGradient id="paint5_linear_61340:2780" x1="243.905" y1="378.933" x2="122.119" y2="305.467" gradientUnits="userSpaceOnUse">
<stop stop-color="#FF008E" stop-opacity="0"/>
<stop offset="1" stop-color="#FFCD1E"/>
</linearGradient>
<linearGradient id="paint6_linear_61340:2780" x1="182.929" y1="336.644" x2="243.673" y2="233.017" gradientUnits="userSpaceOnUse">
<stop stop-color="#8257E5"/>
<stop offset="1" stop-color="#FF008E" stop-opacity="0"/>
</linearGradient>
<linearGradient id="paint7_linear_61340:2780" x1="121.953" y1="308.006" x2="182.697" y2="411.633" gradientUnits="userSpaceOnUse">
<stop stop-color="#8257E5"/>
<stop offset="1" stop-color="#FF008E" stop-opacity="0"/>
</linearGradient>
<linearGradient id="paint8_linear_61340:2780" x1="548.976" y1="406.872" x2="488.232" y2="303.245" gradientUnits="userSpaceOnUse">
<stop stop-color="#8257E5"/>
<stop offset="1" stop-color="#FF008E" stop-opacity="0"/>
</linearGradient>
<linearGradient id="paint9_linear_61340:2780" x1="548.976" y1="336.644" x2="488.232" y2="233.017" gradientUnits="userSpaceOnUse">
<stop stop-color="#8257E5"/>
<stop offset="1" stop-color="#FF008E" stop-opacity="0"/>
</linearGradient>
<linearGradient id="paint10_linear_61340:2780" x1="548.976" y1="195.489" x2="670.763" y2="268.955" gradientUnits="userSpaceOnUse">
<stop stop-color="#FF008E" stop-opacity="0"/>
<stop offset="1" stop-color="#FFCD1E"/>
</linearGradient>
<linearGradient id="paint11_linear_61340:2780" x1="731.905" y1="378.933" x2="610.119" y2="305.467" gradientUnits="userSpaceOnUse">
<stop stop-color="#FF008E" stop-opacity="0"/>
<stop offset="1" stop-color="#FFCD1E"/>
</linearGradient>
<linearGradient id="paint12_linear_61340:2780" x1="670.929" y1="336.644" x2="731.673" y2="233.017" gradientUnits="userSpaceOnUse">
<stop stop-color="#8257E5"/>
<stop offset="1" stop-color="#FF008E" stop-opacity="0"/>
</linearGradient>
<linearGradient id="paint13_linear_61340:2780" x1="609.953" y1="308.006" x2="670.697" y2="411.633" gradientUnits="userSpaceOnUse">
<stop stop-color="#8257E5"/>
<stop offset="1" stop-color="#FF008E" stop-opacity="0"/>
</linearGradient>
<linearGradient id="paint14_linear_61340:2780" x1="304.976" y1="406.873" x2="244.232" y2="303.246" gradientUnits="userSpaceOnUse">
<stop stop-color="#8257E5"/>
<stop offset="1" stop-color="#FF008E" stop-opacity="0"/>
</linearGradient>
<linearGradient id="paint15_linear_61340:2780" x1="304.976" y1="336.644" x2="244.232" y2="233.017" gradientUnits="userSpaceOnUse">
<stop stop-color="#8257E5"/>
<stop offset="1" stop-color="#FF008E" stop-opacity="0"/>
</linearGradient>
<linearGradient id="paint16_linear_61340:2780" x1="304.976" y1="195.489" x2="426.762" y2="268.955" gradientUnits="userSpaceOnUse">
<stop stop-color="#FF008E" stop-opacity="0"/>
<stop offset="1" stop-color="#FFCD1E"/>
</linearGradient>
<linearGradient id="paint17_linear_61340:2780" x1="487.905" y1="378.933" x2="366.119" y2="305.467" gradientUnits="userSpaceOnUse">
<stop stop-color="#FF008E" stop-opacity="0"/>
<stop offset="1" stop-color="#FFCD1E"/>
</linearGradient>
<linearGradient id="paint18_linear_61340:2780" x1="426.929" y1="336.644" x2="487.673" y2="233.017" gradientUnits="userSpaceOnUse">
<stop stop-color="#8257E5"/>
<stop offset="1" stop-color="#FF008E" stop-opacity="0"/>
</linearGradient>
<linearGradient id="paint19_linear_61340:2780" x1="365.952" y1="308.006" x2="426.697" y2="411.633" gradientUnits="userSpaceOnUse">
<stop stop-color="#8257E5"/>
<stop offset="1" stop-color="#FF008E" stop-opacity="0"/>
</linearGradient>
<linearGradient id="paint20_linear_61340:2780" x1="792.976" y1="406.872" x2="732.232" y2="303.245" gradientUnits="userSpaceOnUse">
<stop stop-color="#8257E5"/>
<stop offset="1" stop-color="#FF008E" stop-opacity="0"/>
</linearGradient>
<linearGradient id="paint21_linear_61340:2780" x1="792.976" y1="336.644" x2="732.232" y2="233.017" gradientUnits="userSpaceOnUse">
<stop stop-color="#8257E5"/>
<stop offset="1" stop-color="#FF008E" stop-opacity="0"/>
</linearGradient>
<linearGradient id="paint22_linear_61340:2780" x1="792.977" y1="195.489" x2="914.763" y2="268.955" gradientUnits="userSpaceOnUse">
<stop stop-color="#FF008E" stop-opacity="0"/>
<stop offset="1" stop-color="#FFCD1E"/>
</linearGradient>
<linearGradient id="paint23_linear_61340:2780" x1="975.905" y1="378.933" x2="854.119" y2="305.467" gradientUnits="userSpaceOnUse">
<stop stop-color="#FF008E" stop-opacity="0"/>
<stop offset="1" stop-color="#FFCD1E"/>
</linearGradient>
<linearGradient id="paint24_linear_61340:2780" x1="914.929" y1="336.644" x2="975.673" y2="233.017" gradientUnits="userSpaceOnUse">
<stop stop-color="#8257E5"/>
<stop offset="1" stop-color="#FF008E" stop-opacity="0"/>
</linearGradient>
<linearGradient id="paint25_linear_61340:2780" x1="853.953" y1="308.006" x2="914.697" y2="411.633" gradientUnits="userSpaceOnUse">
<stop stop-color="#8257E5"/>
<stop offset="1" stop-color="#FF008E" stop-opacity="0"/>
</linearGradient>
<linearGradient id="paint26_linear_61340:2780" x1="60.9764" y1="617.317" x2="0.231895" y2="513.69" gradientUnits="userSpaceOnUse">
<stop stop-color="#8257E5"/>
<stop offset="1" stop-color="#FF008E" stop-opacity="0"/>
</linearGradient>
<linearGradient id="paint27_linear_61340:2780" x1="60.9764" y1="547.089" x2="0.231885" y2="443.462" gradientUnits="userSpaceOnUse">
<stop stop-color="#8257E5"/>
<stop offset="1" stop-color="#FF008E" stop-opacity="0"/>
</linearGradient>
<linearGradient id="paint28_linear_61340:2780" x1="60.9763" y1="405.933" x2="182.763" y2="479.4" gradientUnits="userSpaceOnUse">
<stop stop-color="#FF008E" stop-opacity="0"/>
<stop offset="1" stop-color="#FFCD1E"/>
</linearGradient>
<linearGradient id="paint29_linear_61340:2780" x1="243.905" y1="589.378" x2="122.119" y2="515.911" gradientUnits="userSpaceOnUse">
<stop stop-color="#FF008E" stop-opacity="0"/>
<stop offset="1" stop-color="#FFCD1E"/>
</linearGradient>
<linearGradient id="paint30_linear_61340:2780" x1="182.929" y1="547.089" x2="243.673" y2="443.462" gradientUnits="userSpaceOnUse">
<stop stop-color="#8257E5"/>
<stop offset="1" stop-color="#FF008E" stop-opacity="0"/>
</linearGradient>
<linearGradient id="paint31_linear_61340:2780" x1="121.953" y1="518.45" x2="182.697" y2="622.077" gradientUnits="userSpaceOnUse">
<stop stop-color="#8257E5"/>
<stop offset="1" stop-color="#FF008E" stop-opacity="0"/>
</linearGradient>
<linearGradient id="paint32_linear_61340:2780" x1="548.976" y1="617.317" x2="488.232" y2="513.69" gradientUnits="userSpaceOnUse">
<stop stop-color="#8257E5"/>
<stop offset="1" stop-color="#FF008E" stop-opacity="0"/>
</linearGradient>
<linearGradient id="paint33_linear_61340:2780" x1="548.976" y1="547.089" x2="488.232" y2="443.462" gradientUnits="userSpaceOnUse">
<stop stop-color="#8257E5"/>
<stop offset="1" stop-color="#FF008E" stop-opacity="0"/>
</linearGradient>
<linearGradient id="paint34_linear_61340:2780" x1="548.976" y1="405.933" x2="670.763" y2="479.4" gradientUnits="userSpaceOnUse">
<stop stop-color="#FF008E" stop-opacity="0"/>
<stop offset="1" stop-color="#FFCD1E"/>
</linearGradient>
<linearGradient id="paint35_linear_61340:2780" x1="731.905" y1="589.378" x2="610.119" y2="515.911" gradientUnits="userSpaceOnUse">
<stop stop-color="#FF008E" stop-opacity="0"/>
<stop offset="1" stop-color="#FFCD1E"/>
</linearGradient>
<linearGradient id="paint36_linear_61340:2780" x1="670.929" y1="547.089" x2="731.673" y2="443.462" gradientUnits="userSpaceOnUse">
<stop stop-color="#8257E5"/>
<stop offset="1" stop-color="#FF008E" stop-opacity="0"/>
</linearGradient>
<linearGradient id="paint37_linear_61340:2780" x1="609.953" y1="518.451" x2="670.697" y2="622.078" gradientUnits="userSpaceOnUse">
<stop stop-color="#8257E5"/>
<stop offset="1" stop-color="#FF008E" stop-opacity="0"/>
</linearGradient>
<linearGradient id="paint38_linear_61340:2780" x1="304.976" y1="617.317" x2="244.232" y2="513.69" gradientUnits="userSpaceOnUse">
<stop stop-color="#8257E5"/>
<stop offset="1" stop-color="#FF008E" stop-opacity="0"/>
</linearGradient>
<linearGradient id="paint39_linear_61340:2780" x1="304.976" y1="547.089" x2="244.232" y2="443.462" gradientUnits="userSpaceOnUse">
<stop stop-color="#8257E5"/>
<stop offset="1" stop-color="#FF008E" stop-opacity="0"/>
</linearGradient>
<linearGradient id="paint40_linear_61340:2780" x1="304.976" y1="405.933" x2="426.762" y2="479.4" gradientUnits="userSpaceOnUse">
<stop stop-color="#FF008E" stop-opacity="0"/>
<stop offset="1" stop-color="#FFCD1E"/>
</linearGradient>
<linearGradient id="paint41_linear_61340:2780" x1="487.905" y1="589.378" x2="366.119" y2="515.911" gradientUnits="userSpaceOnUse">
<stop stop-color="#FF008E" stop-opacity="0"/>
<stop offset="1" stop-color="#FFCD1E"/>
</linearGradient>
<linearGradient id="paint42_linear_61340:2780" x1="426.929" y1="547.089" x2="487.673" y2="443.462" gradientUnits="userSpaceOnUse">
<stop stop-color="#8257E5"/>
<stop offset="1" stop-color="#FF008E" stop-opacity="0"/>
</linearGradient>
<linearGradient id="paint43_linear_61340:2780" x1="365.952" y1="518.451" x2="426.697" y2="622.078" gradientUnits="userSpaceOnUse">
<stop stop-color="#8257E5"/>
<stop offset="1" stop-color="#FF008E" stop-opacity="0"/>
</linearGradient>
<linearGradient id="paint44_linear_61340:2780" x1="792.976" y1="617.317" x2="732.232" y2="513.69" gradientUnits="userSpaceOnUse">
<stop stop-color="#8257E5"/>
<stop offset="1" stop-color="#FF008E" stop-opacity="0"/>
</linearGradient>
<linearGradient id="paint45_linear_61340:2780" x1="792.976" y1="547.089" x2="732.232" y2="443.462" gradientUnits="userSpaceOnUse">
<stop stop-color="#8257E5"/>
<stop offset="1" stop-color="#FF008E" stop-opacity="0"/>
</linearGradient>
<linearGradient id="paint46_linear_61340:2780" x1="792.977" y1="405.933" x2="914.763" y2="479.4" gradientUnits="userSpaceOnUse">
<stop stop-color="#FF008E" stop-opacity="0"/>
<stop offset="1" stop-color="#FFCD1E"/>
</linearGradient>
<linearGradient id="paint47_linear_61340:2780" x1="975.905" y1="589.378" x2="854.119" y2="515.911" gradientUnits="userSpaceOnUse">
<stop stop-color="#FF008E" stop-opacity="0"/>
<stop offset="1" stop-color="#FFCD1E"/>
</linearGradient>
<linearGradient id="paint48_linear_61340:2780" x1="914.929" y1="547.089" x2="975.673" y2="443.462" gradientUnits="userSpaceOnUse">
<stop stop-color="#8257E5"/>
<stop offset="1" stop-color="#FF008E" stop-opacity="0"/>
</linearGradient>
<linearGradient id="paint49_linear_61340:2780" x1="853.953" y1="518.451" x2="914.697" y2="622.078" gradientUnits="userSpaceOnUse">
<stop stop-color="#8257E5"/>
<stop offset="1" stop-color="#FF008E" stop-opacity="0"/>
</linearGradient>
<linearGradient id="paint50_linear_61340:2780" x1="60.9764" y1="827.761" x2="0.231895" y2="724.135" gradientUnits="userSpaceOnUse">
<stop stop-color="#8257E5"/>
<stop offset="1" stop-color="#FF008E" stop-opacity="0"/>
</linearGradient>
<linearGradient id="paint51_linear_61340:2780" x1="60.9764" y1="757.533" x2="0.231885" y2="653.906" gradientUnits="userSpaceOnUse">
<stop stop-color="#8257E5"/>
<stop offset="1" stop-color="#FF008E" stop-opacity="0"/>
</linearGradient>
<linearGradient id="paint52_linear_61340:2780" x1="60.9763" y1="616.378" x2="182.763" y2="689.844" gradientUnits="userSpaceOnUse">
<stop stop-color="#FF008E" stop-opacity="0"/>
<stop offset="1" stop-color="#FFCD1E"/>
</linearGradient>
<linearGradient id="paint53_linear_61340:2780" x1="243.905" y1="799.822" x2="122.119" y2="726.356" gradientUnits="userSpaceOnUse">
<stop stop-color="#FF008E" stop-opacity="0"/>
<stop offset="1" stop-color="#FFCD1E"/>
</linearGradient>
<linearGradient id="paint54_linear_61340:2780" x1="182.929" y1="757.533" x2="243.673" y2="653.906" gradientUnits="userSpaceOnUse">
<stop stop-color="#8257E5"/>
<stop offset="1" stop-color="#FF008E" stop-opacity="0"/>
</linearGradient>
<linearGradient id="paint55_linear_61340:2780" x1="121.953" y1="728.895" x2="182.697" y2="832.522" gradientUnits="userSpaceOnUse">
<stop stop-color="#8257E5"/>
<stop offset="1" stop-color="#FF008E" stop-opacity="0"/>
</linearGradient>
<linearGradient id="paint56_linear_61340:2780" x1="548.976" y1="827.762" x2="488.232" y2="724.135" gradientUnits="userSpaceOnUse">
<stop stop-color="#8257E5"/>
<stop offset="1" stop-color="#FF008E" stop-opacity="0"/>
</linearGradient>
<linearGradient id="paint57_linear_61340:2780" x1="548.976" y1="757.533" x2="488.232" y2="653.907" gradientUnits="userSpaceOnUse">
<stop stop-color="#8257E5"/>
<stop offset="1" stop-color="#FF008E" stop-opacity="0"/>
</linearGradient>
<linearGradient id="paint58_linear_61340:2780" x1="548.976" y1="616.378" x2="670.763" y2="689.844" gradientUnits="userSpaceOnUse">
<stop stop-color="#FF008E" stop-opacity="0"/>
<stop offset="1" stop-color="#FFCD1E"/>
</linearGradient>
<linearGradient id="paint59_linear_61340:2780" x1="731.905" y1="799.822" x2="610.119" y2="726.356" gradientUnits="userSpaceOnUse">
<stop stop-color="#FF008E" stop-opacity="0"/>
<stop offset="1" stop-color="#FFCD1E"/>
</linearGradient>
<linearGradient id="paint60_linear_61340:2780" x1="670.929" y1="757.533" x2="731.673" y2="653.907" gradientUnits="userSpaceOnUse">
<stop stop-color="#8257E5"/>
<stop offset="1" stop-color="#FF008E" stop-opacity="0"/>
</linearGradient>
<linearGradient id="paint61_linear_61340:2780" x1="609.953" y1="728.895" x2="670.697" y2="832.522" gradientUnits="userSpaceOnUse">
<stop stop-color="#8257E5"/>
<stop offset="1" stop-color="#FF008E" stop-opacity="0"/>
</linearGradient>
<linearGradient id="paint62_linear_61340:2780" x1="304.976" y1="827.762" x2="244.232" y2="724.135" gradientUnits="userSpaceOnUse">
<stop stop-color="#8257E5"/>
<stop offset="1" stop-color="#FF008E" stop-opacity="0"/>
</linearGradient>
<linearGradient id="paint63_linear_61340:2780" x1="304.976" y1="757.533" x2="244.232" y2="653.907" gradientUnits="userSpaceOnUse">
<stop stop-color="#8257E5"/>
<stop offset="1" stop-color="#FF008E" stop-opacity="0"/>
</linearGradient>
<linearGradient id="paint64_linear_61340:2780" x1="304.976" y1="616.378" x2="426.762" y2="689.844" gradientUnits="userSpaceOnUse">
<stop stop-color="#FF008E" stop-opacity="0"/>
<stop offset="1" stop-color="#FFCD1E"/>
</linearGradient>
<linearGradient id="paint65_linear_61340:2780" x1="487.905" y1="799.822" x2="366.119" y2="726.356" gradientUnits="userSpaceOnUse">
<stop stop-color="#FF008E" stop-opacity="0"/>
<stop offset="1" stop-color="#FFCD1E"/>
</linearGradient>
<linearGradient id="paint66_linear_61340:2780" x1="426.929" y1="757.533" x2="487.673" y2="653.907" gradientUnits="userSpaceOnUse">
<stop stop-color="#8257E5"/>
<stop offset="1" stop-color="#FF008E" stop-opacity="0"/>
</linearGradient>
<linearGradient id="paint67_linear_61340:2780" x1="365.952" y1="728.895" x2="426.697" y2="832.522" gradientUnits="userSpaceOnUse">
<stop stop-color="#8257E5"/>
<stop offset="1" stop-color="#FF008E" stop-opacity="0"/>
</linearGradient>
<linearGradient id="paint68_linear_61340:2780" x1="792.976" y1="827.762" x2="732.232" y2="724.135" gradientUnits="userSpaceOnUse">
<stop stop-color="#8257E5"/>
<stop offset="1" stop-color="#FF008E" stop-opacity="0"/>
</linearGradient>
<linearGradient id="paint69_linear_61340:2780" x1="792.976" y1="757.533" x2="732.232" y2="653.907" gradientUnits="userSpaceOnUse">
<stop stop-color="#8257E5"/>
<stop offset="1" stop-color="#FF008E" stop-opacity="0"/>
</linearGradient>
<linearGradient id="paint70_linear_61340:2780" x1="792.977" y1="616.378" x2="914.763" y2="689.844" gradientUnits="userSpaceOnUse">
<stop stop-color="#FF008E" stop-opacity="0"/>
<stop offset="1" stop-color="#FFCD1E"/>
</linearGradient>
<linearGradient id="paint71_linear_61340:2780" x1="975.905" y1="799.822" x2="854.119" y2="726.356" gradientUnits="userSpaceOnUse">
<stop stop-color="#FF008E" stop-opacity="0"/>
<stop offset="1" stop-color="#FFCD1E"/>
</linearGradient>
<linearGradient id="paint72_linear_61340:2780" x1="914.929" y1="757.533" x2="975.673" y2="653.907" gradientUnits="userSpaceOnUse">
<stop stop-color="#8257E5"/>
<stop offset="1" stop-color="#FF008E" stop-opacity="0"/>
</linearGradient>
<linearGradient id="paint73_linear_61340:2780" x1="853.953" y1="728.895" x2="914.697" y2="832.522" gradientUnits="userSpaceOnUse">
<stop stop-color="#8257E5"/>
<stop offset="1" stop-color="#FF008E" stop-opacity="0"/>
</linearGradient>
<linearGradient id="paint74_linear_61340:2780" x1="60.9764" y1="196.428" x2="0.231895" y2="92.8011" gradientUnits="userSpaceOnUse">
<stop stop-color="#8257E5"/>
<stop offset="1" stop-color="#FF008E" stop-opacity="0"/>
</linearGradient>
<linearGradient id="paint75_linear_61340:2780" x1="60.9764" y1="126.199" x2="0.231885" y2="22.5725" gradientUnits="userSpaceOnUse">
<stop stop-color="#8257E5"/>
<stop offset="1" stop-color="#FF008E" stop-opacity="0"/>
</linearGradient>
<linearGradient id="paint76_linear_61340:2780" x1="60.9763" y1="-14.9557" x2="182.763" y2="58.5106" gradientUnits="userSpaceOnUse">
<stop stop-color="#FF008E" stop-opacity="0"/>
<stop offset="1" stop-color="#FFCD1E"/>
</linearGradient>
<linearGradient id="paint77_linear_61340:2780" x1="243.905" y1="168.488" x2="122.119" y2="95.0221" gradientUnits="userSpaceOnUse">
<stop stop-color="#FF008E" stop-opacity="0"/>
<stop offset="1" stop-color="#FFCD1E"/>
</linearGradient>
<linearGradient id="paint78_linear_61340:2780" x1="182.929" y1="126.199" x2="243.673" y2="22.5725" gradientUnits="userSpaceOnUse">
<stop stop-color="#8257E5"/>
<stop offset="1" stop-color="#FF008E" stop-opacity="0"/>
</linearGradient>
<linearGradient id="paint79_linear_61340:2780" x1="121.953" y1="97.5615" x2="182.697" y2="201.188" gradientUnits="userSpaceOnUse">
<stop stop-color="#8257E5"/>
<stop offset="1" stop-color="#FF008E" stop-opacity="0"/>
</linearGradient>
<linearGradient id="paint80_linear_61340:2780" x1="548.976" y1="196.428" x2="488.232" y2="92.8011" gradientUnits="userSpaceOnUse">
<stop stop-color="#8257E5"/>
<stop offset="1" stop-color="#FF008E" stop-opacity="0"/>
</linearGradient>
<linearGradient id="paint81_linear_61340:2780" x1="548.976" y1="126.199" x2="488.232" y2="22.5725" gradientUnits="userSpaceOnUse">
<stop stop-color="#8257E5"/>
<stop offset="1" stop-color="#FF008E" stop-opacity="0"/>
</linearGradient>
<linearGradient id="paint82_linear_61340:2780" x1="548.976" y1="-14.9557" x2="670.763" y2="58.5106" gradientUnits="userSpaceOnUse">
<stop stop-color="#FF008E" stop-opacity="0"/>
<stop offset="1" stop-color="#FFCD1E"/>
</linearGradient>
<linearGradient id="paint83_linear_61340:2780" x1="731.905" y1="168.488" x2="610.119" y2="95.0221" gradientUnits="userSpaceOnUse">
<stop stop-color="#FF008E" stop-opacity="0"/>
<stop offset="1" stop-color="#FFCD1E"/>
</linearGradient>
<linearGradient id="paint84_linear_61340:2780" x1="670.929" y1="126.199" x2="731.673" y2="22.5725" gradientUnits="userSpaceOnUse">
<stop stop-color="#8257E5"/>
<stop offset="1" stop-color="#FF008E" stop-opacity="0"/>
</linearGradient>
<linearGradient id="paint85_linear_61340:2780" x1="609.953" y1="97.5615" x2="670.697" y2="201.188" gradientUnits="userSpaceOnUse">
<stop stop-color="#8257E5"/>
<stop offset="1" stop-color="#FF008E" stop-opacity="0"/>
</linearGradient>
<linearGradient id="paint86_linear_61340:2780" x1="304.976" y1="196.428" x2="244.232" y2="92.8011" gradientUnits="userSpaceOnUse">
<stop stop-color="#8257E5"/>
<stop offset="1" stop-color="#FF008E" stop-opacity="0"/>
</linearGradient>
<linearGradient id="paint87_linear_61340:2780" x1="304.976" y1="126.199" x2="244.232" y2="22.5725" gradientUnits="userSpaceOnUse">
<stop stop-color="#8257E5"/>
<stop offset="1" stop-color="#FF008E" stop-opacity="0"/>
</linearGradient>
<linearGradient id="paint88_linear_61340:2780" x1="304.976" y1="-14.9557" x2="426.762" y2="58.5106" gradientUnits="userSpaceOnUse">
<stop stop-color="#FF008E" stop-opacity="0"/>
<stop offset="1" stop-color="#FFCD1E"/>
</linearGradient>
<linearGradient id="paint89_linear_61340:2780" x1="487.905" y1="168.488" x2="366.119" y2="95.0221" gradientUnits="userSpaceOnUse">
<stop stop-color="#FF008E" stop-opacity="0"/>
<stop offset="1" stop-color="#FFCD1E"/>
</linearGradient>
<linearGradient id="paint90_linear_61340:2780" x1="426.929" y1="126.199" x2="487.673" y2="22.5725" gradientUnits="userSpaceOnUse">
<stop stop-color="#8257E5"/>
<stop offset="1" stop-color="#FF008E" stop-opacity="0"/>
</linearGradient>
<linearGradient id="paint91_linear_61340:2780" x1="365.952" y1="97.5615" x2="426.697" y2="201.188" gradientUnits="userSpaceOnUse">
<stop stop-color="#8257E5"/>
<stop offset="1" stop-color="#FF008E" stop-opacity="0"/>
</linearGradient>
<linearGradient id="paint92_linear_61340:2780" x1="792.976" y1="196.428" x2="732.232" y2="92.8011" gradientUnits="userSpaceOnUse">
<stop stop-color="#8257E5"/>
<stop offset="1" stop-color="#FF008E" stop-opacity="0"/>
</linearGradient>
<linearGradient id="paint93_linear_61340:2780" x1="792.976" y1="126.199" x2="732.232" y2="22.5725" gradientUnits="userSpaceOnUse">
<stop stop-color="#8257E5"/>
<stop offset="1" stop-color="#FF008E" stop-opacity="0"/>
</linearGradient>
<linearGradient id="paint94_linear_61340:2780" x1="792.977" y1="-14.9557" x2="914.763" y2="58.5106" gradientUnits="userSpaceOnUse">
<stop stop-color="#FF008E" stop-opacity="0"/>
<stop offset="1" stop-color="#FFCD1E"/>
</linearGradient>
<linearGradient id="paint95_linear_61340:2780" x1="975.905" y1="168.488" x2="854.119" y2="95.0221" gradientUnits="userSpaceOnUse">
<stop stop-color="#FF008E" stop-opacity="0"/>
<stop offset="1" stop-color="#FFCD1E"/>
</linearGradient>
<linearGradient id="paint96_linear_61340:2780" x1="914.929" y1="126.199" x2="975.673" y2="22.5725" gradientUnits="userSpaceOnUse">
<stop stop-color="#8257E5"/>
<stop offset="1" stop-color="#FF008E" stop-opacity="0"/>
</linearGradient>
<linearGradient id="paint97_linear_61340:2780" x1="853.953" y1="97.5615" x2="914.697" y2="201.188" gradientUnits="userSpaceOnUse">
<stop stop-color="#8257E5"/>
<stop offset="1" stop-color="#FF008E" stop-opacity="0"/>
</linearGradient>
</defs>
</svg>
